<!--?xml version="1.0" standalone="no"?-->
              <svg id="sw-js-blob-svg" viewBox="0 0 100 100" xmlns="http://www.w3.org/2000/svg" version="1.1">
                    <defs> 
                        <linearGradient id="sw-gradient" x1="0" x2="1" y1="1" y2="0">
                            <stop id="stop1" stop-color="rgba(207, 244, 210, 1)" offset="0%"></stop>
                            <stop id="stop2" stop-color="rgba(251, 168, 31, 1)" offset="100%"></stop>
                        </linearGradient>
                    </defs>
                <path fill="rgba(207, 244, 210, 1)" d="M21.6,-27.9C27.4,-20.8,31.4,-13.5,32.5,-5.9C33.6,1.6,31.8,9.5,27.7,15.5C23.7,21.6,17.3,25.8,9.8,29.9C2.2,34,-6.5,38,-13,35.6C-19.4,33.3,-23.5,24.6,-28.8,16.2C-34,7.9,-40.5,-0.2,-40.6,-8.5C-40.8,-16.8,-34.6,-25.4,-26.8,-32.1C-19,-38.9,-9.5,-43.8,-0.8,-42.8C7.8,-41.9,15.7,-34.9,21.6,-27.9Z" width="100%" height="100%" transform="translate(50 50)" stroke-width="0" style="transition: all 0.3s ease 0s;" stroke="url(#sw-gradient)"></path>
              </svg>