<!--?xml version="1.0" standalone="no"?-->
              <svg id="sw-js-blob-svg" viewBox="0 0 100 100" xmlns="http://www.w3.org/2000/svg" version="1.1">
                    <defs> 
                        <linearGradient id="sw-gradient" x1="0" x2="1" y1="1" y2="0">
                            <stop id="stop1" stop-color="rgba(207, 244, 210, 1)" offset="0%"></stop>
                            <stop id="stop2" stop-color="rgba(251, 168, 31, 1)" offset="100%"></stop>
                        </linearGradient>
                    </defs>
                <path fill="rgba(207, 244, 210, 1)" d="M22.7,-25.5C29.2,-21.6,34.1,-14.3,35.3,-6.4C36.4,1.4,33.6,9.6,29.4,17C25.2,24.5,19.5,31.1,11.6,35.5C3.7,39.9,-6.2,42.2,-14.3,39.2C-22.3,36.3,-28.5,28.1,-33.2,19.4C-37.9,10.7,-41.3,1.4,-40.5,-7.9C-39.7,-17.1,-34.8,-26.4,-27.4,-30.1C-19.9,-33.7,-10,-31.8,-0.9,-30.7C8.1,-29.6,16.2,-29.3,22.7,-25.5Z" width="100%" height="100%" transform="translate(50 50)" stroke-width="0" style="transition: all 0.3s ease 0s;" stroke="url(#sw-gradient)"></path>
              </svg>