<!--?xml version="1.0" standalone="no"?-->
              <svg id="sw-js-blob-svg" viewBox="0 0 100 100" xmlns="http://www.w3.org/2000/svg" version="1.1">
                    <defs> 
                        <linearGradient id="sw-gradient" x1="0" x2="1" y1="1" y2="0">
                            <stop id="stop1" stop-color="rgba(207, 244, 210, 1)" offset="0%"></stop>
                            <stop id="stop2" stop-color="rgba(251, 168, 31, 1)" offset="100%"></stop>
                        </linearGradient>
                    </defs>
                <path fill="rgba(207, 244, 210, 1)" d="M24.6,-29.4C32.6,-22.7,40.3,-15.6,41.2,-7.7C42,0.1,36,8.8,30.5,17C25,25.2,20,33.1,13.2,34.8C6.5,36.6,-1.8,32.3,-9.5,28.4C-17.1,24.6,-24.1,21.3,-29.1,15.4C-34.2,9.6,-37.4,1.2,-36.8,-7.3C-36.2,-15.7,-31.9,-24.2,-25.1,-31.2C-18.3,-38.1,-9.2,-43.5,-0.4,-43C8.3,-42.5,16.6,-36.1,24.6,-29.4Z" width="100%" height="100%" transform="translate(50 50)" stroke-width="0" style="transition: all 0.3s ease 0s;" stroke="url(#sw-gradient)"></path>
              </svg>