<svg id="Capa_1" data-name="Capa 1" xmlns="http://www.w3.org/2000/svg" viewBox="0 0 424.94 407.77"><defs><style>.cls-1{fill:#d0e6ce;}.cls-2{fill:#89c58d;}.cls-3{fill:#60ba93;}.cls-4{fill:none;stroke:#fff;stroke-miterlimit:10;stroke-width:4px;}</style></defs><title>Box Logo</title><polygon class="cls-1" points="211.5 292.7 2 217.88 44 202.88 44.09 202.63 211.4 262.66 212 262.88 380.89 202.56 381 202.88 422 217.88 212 292.88 211.5 292.7"/><polygon class="cls-2" points="211.5 262.38 213 151.88 422 77.24 422 187.88 380.89 202.56 212 262.88 211.4 262.66 211.5 262.38"/><polygon class="cls-3" points="3 77.88 3 76.88 3.89 76.56 213 151.88 211.5 262.38 211.4 262.66 44.09 202.63 3 187.88 3 77.88"/><polygon class="cls-2" points="422 330.88 212 405.88 211.4 405.67 211.5 405.38 211.5 292.7 212 292.88 422 217.88 422 330.88"/><polygon class="cls-3" points="211.5 292.7 211.5 405.38 211.4 405.67 2 330.88 2 217.88 211.5 292.7"/><path class="cls-2" d="M710,306v.36L501,381,291.89,305.68l208.61-74.5ZM500,343l111-38L500,268,386,307Z" transform="translate(-288 -229.12)"/><polygon class="cls-1" points="212 38.88 212 113.88 98 77.88 212 38.88"/><line class="cls-4" x1="213" y1="151.88" x2="211.5" y2="262.38"/><polyline class="cls-4" points="422 75.88 422 76.88 422 77.24 422 187.88"/><line class="cls-4" x1="3" y1="77.88" x2="3" y2="187.88"/><polyline class="cls-4" points="423 76.88 422 77.24 213 151.88"/><polyline class="cls-4" points="2 75.88 3.89 76.56 213 151.88"/><line class="cls-4" x1="212" y1="405.88" x2="422" y2="330.88"/><polyline class="cls-4" points="2 330.88 211.4 405.67 212 405.88"/><polyline class="cls-4" points="212 1.88 212.5 2.06 422 76.88"/><polyline class="cls-4" points="3 76.88 3.89 76.56 212.5 2.06 213 1.88"/><polyline class="cls-4" points="212 262.88 380.89 202.56 422 187.88"/><line class="cls-4" x1="212" y1="292.88" x2="422" y2="217.88"/><line class="cls-4" x1="422" y1="217.88" x2="423.09" y2="220.35"/><line class="cls-4" x1="422" y1="330.88" x2="423.09" y2="333.53"/><line class="cls-4" x1="422" y1="217.88" x2="422" y2="330.88"/><line class="cls-4" x1="212" y1="262.88" x2="212.46" y2="262.95"/><polyline class="cls-4" points="211.5 292.38 211.5 292.7 211.5 405.38"/><polyline class="cls-4" points="212 262.88 211.4 262.66 44.09 202.63 3 187.88"/><polyline class="cls-4" points="212 292.88 211.5 292.7 2 217.88"/><line class="cls-4" x1="2" y1="217.88" x2="2" y2="330.88"/><line class="cls-4" x1="2" y1="217.88" x2="44" y2="202.88"/><line class="cls-4" x1="381" y1="202.88" x2="422" y2="217.88"/><line class="cls-4" x1="212" y1="38.88" x2="212" y2="113.88"/><line class="cls-4" x1="323" y1="75.88" x2="212" y2="113.88"/><line class="cls-4" x1="212" y1="38.88" x2="323" y2="75.88"/><line class="cls-4" x1="212" y1="113.88" x2="98" y2="77.88"/><line class="cls-4" x1="98" y1="77.88" x2="212" y2="38.88"/></svg>