<svg xmlns="http://www.w3.org/2000/svg" xmlns:xlink="http://www.w3.org/1999/xlink" width="569" height="399" viewBox="0 0 569 399"><defs><clipPath id="a"><rect width="569" height="399" transform="translate(362 294)" fill="#fff" stroke="#707070" stroke-width="1" opacity="0.35"/></clipPath><filter id="b" x="58" y="68" width="470" height="281" filterUnits="userSpaceOnUse"><feOffset dy="3" input="SourceAlpha"/><feGaussianBlur stdDeviation="4" result="c"/><feFlood flood-opacity="0.78"/><feComposite operator="in" in2="c"/><feComposite in="SourceGraphic"/></filter><linearGradient id="d" x1="0.834" x2="0.136" y2="1" gradientUnits="objectBoundingBox"><stop offset="0" stop-color="#7be495"/><stop offset="1" stop-color="#56c596"/></linearGradient><filter id="e" x="148.25" y="170" width="262" height="176" filterUnits="userSpaceOnUse"><feOffset input="SourceAlpha"/><feGaussianBlur stdDeviation="4" result="f"/><feFlood flood-opacity="0.651"/><feComposite operator="in" in2="f"/><feComposite in="SourceGraphic"/></filter><linearGradient id="g" x1="0.816" x2="0.175" xlink:href="#d"/><filter id="h" x="326.75" y="189" width="111" height="157" filterUnits="userSpaceOnUse"><feOffset input="SourceAlpha"/><feGaussianBlur stdDeviation="4" result="i"/><feFlood flood-opacity="0.678"/><feComposite operator="in" in2="i"/><feComposite in="SourceGraphic"/></filter><linearGradient id="j" x1="0.83" x2="0.129" xlink:href="#d"/></defs><g transform="translate(-362 -294)" clip-path="url(#a)"><path d="M390.851,87.6c44.946,48.156,83.47,107.548,76.247,162.928-8.026,55.379-62.6,105.14-122.8,129.218-61,23.275-126.811,20.065-193.426-4.013S18.445,306.714-13.658,234.48-44.157,62.724,4.8,12.963C54.562-36,150.874-34.39,223.911-15.128,297.75,3.332,346.708,39.449,390.851,87.6Z" transform="matrix(-0.883, 0.469, -0.469, -0.883, 929.385, 560.372)" fill="#cff4d2"/><g transform="translate(363.387 519.606)"><path d="M3352.677,483.853c-9.034-8.283-27.209-23.247-73.99-36.01s-39.144,38.745,0,42.848,73.99,16.866,73.99,16.866Z" transform="translate(-3246.401 -445.815)" fill="#329d9c"/><path d="M3110.045,464.4s-37.344-24.159-78.824-25.982" transform="translate(-3003.769 -415.04)" fill="none" stroke="#707070" stroke-width="0.5"/></g><g transform="translate(-716.621 -148.745)"><path d="M3222.767,684.222c-14.464-33.236-5.539-23.7-8.617-53.854-2.783-22.687-31.743-23.567-37.237-17.233-3.312,3.563-4.472,11.81-2.235,15.54,6.751,11.383,5.8,4.849,13.006,18.619,9.232,25.542,23.7,36.929,23.7,36.929Z" transform="translate(-2065 15)" fill="#7be495"/><path d="M3232.338,697.919c-4.462-9.5-12.073-17.28-13.493-26.275-2.367-20.595-14.914-35.508-14.914-35.508" transform="translate(-2079.82 1.303)" fill="none" stroke="#707070" stroke-width="1"/></g><g transform="translate(-136.09 16.898)"><g transform="translate(979.149 446.313)"><path d="M2963.177,498.531c2.613-1.534,17.34-2.148,26.238-15.341.614-1.227,7.67-14.421,16.875-23.932s21.784-17.8,30.375-16.875,4.3,16.875,4.3,16.875a53.362,53.362,0,0,0-4.3,22.4c.307,12.886-15.954,20.25-15.954,20.25s-8.284,5.216-14.421,23.625-43.113,34.44-43.113,34.44Z" transform="translate(-2963.177 -442.313)" fill="#7be495"/><path d="M2963.177,564.971s11.28,1.534,23.246-8.284,18.1-23.318,18.1-23.318,12.886-27.614,25.772-31.6" transform="translate(-2963.177 -479.836)" fill="none" stroke="#707070" stroke-width="0.5"/></g><g transform="translate(945.379 520.32)"><path d="M0,19.563C15.538,13.037,32.4,3.869,59.044.917s39.262,1.675,47.547,7.458c16.47,11.5,11.5,31.076-2.175,35.427s-17.092-3.418-43.2-9.323S0,36.344,0,36.344Z" transform="matrix(0.998, -0.07, 0.07, 0.998, 0, 8.159)" fill="#329d9c"/><path d="M0,9.806s67.124-22.064,98.822,0" transform="matrix(0.998, -0.07, 0.07, 0.998, 1.222, 25.642)" fill="none" stroke="#707070" stroke-width="1"/></g></g><g transform="matrix(1, 0, 0, 1, 362, 294)" filter="url(#b)"><g transform="translate(70 77)" fill="#ebecf0" stroke="#ebecf0" stroke-width="6"><rect width="446" height="257" rx="6" stroke="none"/><rect x="3" y="3" width="440" height="251" rx="3" fill="none"/></g></g><rect width="434" height="21" transform="translate(438 377)" fill="#456250"/><rect width="434" height="94" transform="translate(438 398)" fill="url(#d)"/><rect width="434" height="130" transform="translate(438 492)" fill="#fff"/><rect width="241" height="109" rx="4" transform="translate(535 503)" fill="#ebecf0"/><rect width="81" height="109" rx="4" transform="translate(783 503)" fill="#ebecf0"/><rect width="81" height="109" rx="4" transform="translate(447 503)" fill="#ebecf0"/><rect width="123" height="8" rx="4" transform="translate(543 510)" fill="#329d9c"/><rect width="207" height="8" rx="4" transform="translate(543 526)" fill="#fff"/><rect width="163" height="8" rx="4" transform="translate(543 542)" fill="#fff"/><rect width="224" height="8" rx="4" transform="translate(543 558)" fill="#fff"/><rect width="72" height="8" rx="4" transform="translate(452 510)" fill="#329d9c"/><rect width="72" height="8" rx="4" transform="translate(452 526)" fill="#fff"/><rect width="52" height="8" rx="4" transform="translate(452 542)" fill="#fff"/><rect width="52" height="8" rx="4" transform="translate(452 558)" fill="#fff"/><rect width="52" height="8" rx="4" transform="translate(452 574)" fill="#fff"/><rect width="15" height="8" rx="4" transform="translate(509 542)" fill="#7be495"/><rect width="15" height="8" rx="4" transform="translate(509 558)" fill="#7be495"/><rect width="15" height="8" rx="4" transform="translate(509 574)" fill="#7be495"/><rect width="207" height="8" rx="4" transform="translate(552 435)" fill="#fff"/><rect width="143" height="8" rx="4" transform="translate(584 450)" fill="#fff"/><rect width="68" height="46" rx="4" transform="translate(790 510)" fill="#7be495"/><rect width="68" height="8" rx="4" transform="translate(790 564)" fill="#329d9c"/><rect width="68" height="8" rx="4" transform="translate(790 578)" fill="#fff"/><rect width="68" height="8" rx="4" transform="translate(790 592)" fill="#fff"/><g transform="translate(-145.25 -104)"><g transform="matrix(1, 0, 0, 1, 507.25, 398)" filter="url(#e)"><g transform="translate(398.25 182) rotate(90)" fill="#ebecf0" stroke="#ebecf0" stroke-width="6"><rect width="152" height="238" rx="6" stroke="none"/><rect x="3" y="3" width="146" height="232" rx="3" fill="none"/></g></g><rect width="225" height="15" transform="translate(674 587)" fill="#456250"/><rect width="225" height="61" transform="translate(674 602)" fill="url(#g)"/><rect width="225" height="62" transform="translate(674 663)" fill="#fff"/><rect width="42" height="64" rx="4" transform="translate(679 668)" fill="#ebecf0"/><rect width="37" height="4" rx="2" transform="translate(682 672)" fill="#329d9c"/><rect width="37" height="4" rx="2" transform="translate(682 682)" fill="#fff"/><rect width="27" height="5" rx="2.5" transform="translate(682 691)" fill="#fff"/><rect width="27" height="4" rx="2" transform="translate(682 701)" fill="#fff"/><rect width="27" height="4" rx="2" transform="translate(682 710)" fill="#fff"/><rect width="8" height="5" rx="2.5" transform="translate(711 691)" fill="#7be495"/><rect width="8" height="4" rx="2" transform="translate(711 701)" fill="#7be495"/><rect width="8" height="4" rx="2" transform="translate(711 710)" fill="#7be495"/><path d="M4,0H163a4,4,0,0,1,4,4V59a0,0,0,0,1,0,0H0a0,0,0,0,1,0,0V4A4,4,0,0,1,4,0Z" transform="translate(726 668)" fill="#ebecf0"/><rect width="66" height="4" rx="2" transform="translate(730 672)" fill="#329d9c"/><rect width="149" height="5" rx="2.5" transform="translate(730 680)" fill="#fff"/><rect width="88" height="4" rx="2" transform="translate(730 689)" fill="#fff"/><rect width="159" height="4" rx="2" transform="translate(730 698)" fill="#fff"/><rect width="122" height="5" rx="2.5" transform="translate(725.5 625)" fill="#fff"/><rect width="84" height="5" rx="2.5" transform="translate(744 635)" fill="#fff"/></g><g transform="translate(-228.25 -98)"><g transform="matrix(1, 0, 0, 1, 590.25, 392)" filter="url(#h)"><g transform="translate(338.75 201)" fill="#ebecf0" stroke="#ebecf0" stroke-width="4"><rect width="87" height="133" rx="6" stroke="none"/><rect x="2" y="2" width="83" height="129" rx="4" fill="none"/></g></g><rect width="77" height="11" transform="translate(934 599)" fill="#456250"/><rect width="77" height="37" transform="translate(934 610)" fill="url(#j)"/><rect width="77" height="74" transform="translate(934 647)" fill="#fff"/><rect width="68" height="19" rx="4" transform="translate(939 651)" fill="#ebecf0"/><path d="M4,0H64a4,4,0,0,1,4,4V47a0,0,0,0,1,0,0H0a0,0,0,0,1,0,0V4A4,4,0,0,1,4,0Z" transform="translate(939 674)" fill="#ebecf0"/><rect width="25" height="5" rx="2.5" transform="translate(961 654)" fill="#329d9c"/><rect width="50" height="5" rx="2.5" transform="translate(943 661)" fill="#fff"/><rect width="9" height="5" rx="2.5" transform="translate(995 661)" fill="#7be495"/><rect width="43" height="5" rx="2.5" transform="translate(952 677)" fill="#329d9c"/><rect width="61" height="5" rx="2.5" transform="translate(943 686)" fill="#fff"/><rect width="61" height="5" rx="2.5" transform="translate(943 695)" fill="#fff"/><rect width="61" height="5" rx="2.5" transform="translate(943 704)" fill="#fff"/><rect width="48" height="5" rx="2.5" transform="translate(948.25 621)" fill="#fff"/><rect width="27" height="5" rx="2.5" transform="translate(959.25 630)" fill="#fff"/></g></g></svg>