<svg xmlns="http://www.w3.org/2000/svg" xmlns:xlink="http://www.w3.org/1999/xlink" width="569" height="399" viewBox="0 0 569 399"><defs><clipPath id="a"><rect width="569" height="399" transform="translate(730 560)" fill="#fff" stroke="#707070" stroke-width="1"/></clipPath><filter id="b" x="146" y="23" width="277" height="369" filterUnits="userSpaceOnUse"><feOffset dy="1" input="SourceAlpha"/><feGaussianBlur stdDeviation="4" result="c"/><feFlood flood-opacity="0.431"/><feComposite operator="in" in2="c"/><feComposite in="SourceGraphic"/></filter><linearGradient id="d" x1="0.83" x2="0.129" y2="1" gradientUnits="objectBoundingBox"><stop offset="0" stop-color="#7be495"/><stop offset="1" stop-color="#56c596"/></linearGradient><filter id="e" x="209.614" y="149.213" width="151.772" height="137.575" filterUnits="userSpaceOnUse"><feOffset dy="1" input="SourceAlpha"/><feGaussianBlur stdDeviation="4" result="f"/><feFlood flood-opacity="0.502"/><feComposite operator="in" in2="f"/><feComposite in="SourceGraphic"/></filter></defs><g transform="translate(-730 -560)" clip-path="url(#a)"><path d="M268.583,107.489C317.856,164.5,379.8,202.515,400.915,261.642c21.821,59.127,3.52,139.371-45.753,166.119-49.977,26.044-130.221-2.112-198.5-14.782s-123.182-9.855-149.93-35.9c-26.748-26.748-25.34-81.652-28.156-140.075-2.112-57.719-9.151-118.254,17.6-175.27S83.459-49.479,132.732-38.217C181.3-26.251,219.311,50.474,268.583,107.489Z" transform="translate(1305.247 811.053) rotate(131)" fill="#cff4d2"/><g transform="translate(135.174 348.777)"><g transform="matrix(0.966, 0.259, -0.259, 0.966, 995.718, 438.113)"><path d="M2963.177,498.531c2.613-1.534,17.34-2.148,26.238-15.341.614-1.227,7.67-14.421,16.875-23.932s21.784-17.8,30.375-16.875,4.3,16.875,4.3,16.875a53.362,53.362,0,0,0-4.3,22.4c.307,12.886-15.954,20.25-15.954,20.25s-8.284,5.216-14.421,23.625-43.113,34.44-43.113,34.44Z" transform="translate(-2963.177 -442.313)" fill="#7be495"/><path d="M2963.177,564.971s11.28,1.534,23.246-8.284,18.1-23.318,18.1-23.318,12.886-27.614,25.772-31.6" transform="translate(-2963.177 -479.836)" fill="none" stroke="#707070" stroke-width="0.5"/></g><g transform="translate(945.379 520.32)"><path d="M0,19.563C15.538,13.037,32.4,3.869,59.044.917s39.262,1.675,47.547,7.458c16.47,11.5,11.5,31.076-2.175,35.427s-17.092-3.418-43.2-9.323S0,36.344,0,36.344Z" transform="matrix(0.998, -0.07, 0.07, 0.998, 0, 8.159)" fill="#329d9c"/><path d="M0,9.806s67.124-22.064,98.822,0" transform="matrix(0.998, -0.07, 0.07, 0.998, 1.222, 25.642)" fill="none" stroke="#707070" stroke-width="1"/></g></g><g transform="translate(1129.203 762.343)"><path d="M3173.524,684.222c14.464-33.236,5.539-23.7,8.617-53.854,2.783-22.687,31.743-23.567,37.237-17.233,3.312,3.563,4.472,11.81,2.235,15.54-6.751,11.383-5.8,4.849-13.006,18.62-9.232,25.542-23.7,36.929-23.7,36.929Z" transform="translate(-3173.524 -609.745)" fill="#7be495"/><path d="M3203.931,697.919c4.462-9.5,12.073-17.28,13.493-26.275,2.367-20.595,14.914-35.509,14.914-35.509" transform="translate(-3198.683 -623.442)" fill="none" stroke="#707070" stroke-width="1"/></g><g transform="translate(834.392 871.487)"><g transform="matrix(0.995, 0.105, -0.105, 0.995, 283.64, -162.013)"><path d="M0,0H69.2V69.2H0Z" fill="none"/><path d="M51.745,33.658a22.468,22.468,0,0,0,.2-2.826,22.47,22.47,0,0,0-.2-2.826l6.084-4.757a1.455,1.455,0,0,0,.346-1.845l-5.766-9.976a1.44,1.44,0,0,0-1.269-.721,1.347,1.347,0,0,0-.49.086L43.47,13.677A21.065,21.065,0,0,0,38.6,10.851L37.5,3.211A1.406,1.406,0,0,0,36.089,2H24.556a1.406,1.406,0,0,0-1.413,1.211l-1.1,7.641a22.151,22.151,0,0,0-4.873,2.826L10,10.794a1.633,1.633,0,0,0-.519-.086,1.428,1.428,0,0,0-1.24.721L2.471,21.4a1.421,1.421,0,0,0,.346,1.845L8.9,28.007a22.866,22.866,0,0,0-.2,2.826,22.866,22.866,0,0,0,.2,2.826L2.817,38.415a1.455,1.455,0,0,0-.346,1.845l5.766,9.976a1.44,1.44,0,0,0,1.269.721A1.347,1.347,0,0,0,10,50.87l7.179-2.883a21.065,21.065,0,0,0,4.873,2.826l1.1,7.641a1.406,1.406,0,0,0,1.413,1.211H36.089A1.406,1.406,0,0,0,37.5,58.453l1.1-7.641a22.151,22.151,0,0,0,4.873-2.826l7.179,2.883a1.632,1.632,0,0,0,.519.086,1.428,1.428,0,0,0,1.24-.721l5.766-9.976a1.455,1.455,0,0,0-.346-1.845Zm-5.709-4.93a15.4,15.4,0,0,1,.144,2.1c0,.605-.058,1.24-.144,2.1l-.4,3.258L48.2,38.213l3.114,2.422-2.018,3.489-3.662-1.47-3-1.211L40.039,43.4a16.886,16.886,0,0,1-3.6,2.1l-3.056,1.24-.461,3.258L32.341,53.9H28.3l-.548-3.892L27.3,46.747l-3.056-1.24a16.359,16.359,0,0,1-3.546-2.047l-2.624-2.018-3.056,1.24-3.662,1.47L9.333,40.664l3.114-2.422,2.566-2.018-.4-3.258c-.086-.894-.144-1.557-.144-2.134s.058-1.24.144-2.1l.4-3.258-2.566-2.018L9.333,21.029l2.018-3.489,3.662,1.47,3,1.211,2.595-1.961a16.886,16.886,0,0,1,3.6-2.1l3.056-1.24.461-3.258L28.3,7.766h4.008l.548,3.892.461,3.258,3.056,1.24A16.359,16.359,0,0,1,39.924,18.2l2.624,2.018,3.056-1.24,3.662-1.47L51.283,21,48.2,23.451l-2.566,2.018.4,3.258ZM30.322,19.3A11.533,11.533,0,1,0,41.855,30.832,11.53,11.53,0,0,0,30.322,19.3Zm0,17.3a5.766,5.766,0,1,1,5.766-5.766A5.783,5.783,0,0,1,30.322,36.6Z" transform="translate(4.276 3.766)" fill="#329d9c"/></g></g><g transform="matrix(0.208, -0.978, 0.978, 0.208, 818.934, 817.531)"><path d="M0,0H106.346V106.346H0Z" fill="none"/><path d="M78.3,50.653a34.53,34.53,0,0,0,.31-4.342,34.533,34.533,0,0,0-.31-4.342l9.35-7.311a2.235,2.235,0,0,0,.532-2.836L79.324,16.49a2.213,2.213,0,0,0-1.95-1.108,2.07,2.07,0,0,0-.753.133L65.588,19.946A32.374,32.374,0,0,0,58.1,15.6L56.415,3.861A2.161,2.161,0,0,0,54.244,2H36.52a2.161,2.161,0,0,0-2.171,1.861L32.665,15.6a34.043,34.043,0,0,0-7.489,4.342L14.143,15.515a2.509,2.509,0,0,0-.8-.133A2.195,2.195,0,0,0,11.44,16.49L2.578,31.821a2.185,2.185,0,0,0,.532,2.836l9.35,7.311a35.141,35.141,0,0,0-.31,4.342,35.141,35.141,0,0,0,.31,4.342L3.11,57.964A2.235,2.235,0,0,0,2.578,60.8L11.44,76.132a2.213,2.213,0,0,0,1.95,1.108,2.069,2.069,0,0,0,.753-.133l11.033-4.431a32.374,32.374,0,0,0,7.488,4.342L34.349,88.76a2.161,2.161,0,0,0,2.171,1.861H54.244a2.161,2.161,0,0,0,2.171-1.861L58.1,77.018a34.044,34.044,0,0,0,7.488-4.342l11.033,4.431a2.509,2.509,0,0,0,.8.133,2.195,2.195,0,0,0,1.905-1.108L88.186,60.8a2.235,2.235,0,0,0-.532-2.836Zm-8.774-7.577a23.674,23.674,0,0,1,.222,3.235c0,.931-.089,1.905-.222,3.235l-.62,5.007,3.944,3.1,4.786,3.722-3.1,5.362-5.627-2.26L64.3,62.617,60.315,65.63a25.951,25.951,0,0,1-5.539,3.235l-4.7,1.905-.709,5.007-.886,5.982h-6.2l-.842-5.982-.709-5.007-4.7-1.905a25.142,25.142,0,0,1-5.45-3.146l-4.032-3.1-4.7,1.905-5.627,2.26-3.1-5.362L17.909,57.7l3.944-3.1-.62-5.007c-.133-1.374-.222-2.393-.222-3.279s.089-1.905.222-3.235l.62-5.007-3.944-3.1-4.786-3.722,3.1-5.362,5.627,2.26L26.461,30l3.988-3.013a25.951,25.951,0,0,1,5.539-3.235l4.7-1.905.709-5.007.886-5.982h6.159l.842,5.982.709,5.007,4.7,1.905a25.141,25.141,0,0,1,5.45,3.146L64.17,30l4.7-1.905,5.627-2.26L77.6,31.2l-4.741,3.766-3.944,3.1.62,5.007ZM45.382,28.586A17.724,17.724,0,1,0,63.106,46.311,17.719,17.719,0,0,0,45.382,28.586Zm0,26.586a8.862,8.862,0,1,1,8.862-8.862A8.888,8.888,0,0,1,45.382,55.173Z" transform="translate(7.791 6.862)" fill="#329d9c"/></g><g transform="translate(821.786 836.306)"><path d="M3352.677,483.853c-9.034-8.283-27.209-23.247-73.99-36.01s-39.144,38.745,0,42.848,73.99,16.866,73.99,16.866Z" transform="translate(-3246.401 -445.815)" fill="#7be495"/><path d="M3110.045,464.4s-37.344-24.159-78.824-25.982" transform="translate(-3003.769 -415.04)" fill="none" stroke="#707070" stroke-width="0.5"/></g><g transform="matrix(0.891, -0.454, 0.454, 0.891, 834.392, 814.817)"><path d="M3222.767,684.222c-14.464-33.236-5.539-23.7-8.617-53.854-2.783-22.687-31.743-23.567-37.237-17.233-3.312,3.563-4.472,11.81-2.235,15.54,6.751,11.383,5.8,4.849,13.006,18.62,9.232,25.542,23.7,36.929,23.7,36.929Z" transform="translate(-3173.524 -609.745)" fill="#7be495"/><path d="M3232.338,697.919c-4.462-9.5-12.073-17.28-13.493-26.275-2.367-20.595-14.914-35.509-14.914-35.509" transform="translate(-3188.344 -623.442)" fill="none" stroke="#707070" stroke-width="1"/></g><path d="M0,25.507C15.538,32.033,32.4,41.2,59.044,44.153s39.262-1.675,47.547-7.458c16.47-11.5,11.5-31.076-2.175-35.427s-17.092,3.418-43.2,9.323S0,8.726,0,8.726Z" transform="matrix(-0.998, -0.07, 0.07, -0.998, 951.07, 924.606)" fill="#329d9c"/><path d="M0,0S67.124,22.064,98.822,0" transform="matrix(-0.998, -0.07, 0.07, -0.998, 952.308, 906.911)" fill="none" stroke="#707070" stroke-width="1"/><g transform="matrix(1, 0, 0, 1, 730, 560)" filter="url(#b)"><rect width="253" height="345" rx="8" transform="translate(158 34)" fill="#ebecf0"/></g><rect width="236" height="325" transform="translate(897 604)" fill="#fff"/><rect width="236" height="30" transform="translate(897 604)" fill="#456250"/><rect width="236" height="97" transform="translate(897 634)" fill="url(#d)"/><rect width="227" height="52.976" rx="4" transform="translate(902 739.485)" fill="#ebecf0"/><path d="M4,0H223a4,4,0,0,1,4,4V129a0,0,0,0,1,0,0H0a0,0,0,0,1,0,0V4A4,4,0,0,1,4,0Z" transform="translate(902 800)" fill="#ebecf0"/><rect width="25" height="5" rx="2.5" transform="translate(1006.558 754.427)" fill="#329d9c"/><rect width="185.5" height="8" rx="4" transform="translate(913.5 773)" fill="#fff"/><rect width="9" height="8" rx="4" transform="translate(1107 773)" fill="#7be495"/><rect width="43" height="5" rx="2.5" transform="translate(999.177 817.333)" fill="#329d9c"/><rect width="220" height="8" rx="4" transform="translate(906 864.5)" fill="#fff"/><rect width="220" height="8" rx="4" transform="translate(906 880.551)" fill="#fff"/><rect width="220" height="8" rx="4" transform="translate(906 896.603)" fill="#fff"/><rect width="123" height="8" rx="4" transform="translate(954 659)" fill="#fff"/><rect width="62" height="8" rx="4" transform="translate(985 675)" fill="#fff"/><rect width="236" height="325" transform="translate(897 604)" fill="#202020" opacity="0.25"/><g transform="matrix(1, 0, 0, 1, 730, 560)" filter="url(#e)"><rect width="127.772" height="113.575" rx="8" transform="translate(221.61 160.21)" fill="#7be495"/></g><circle cx="45.5" cy="45.5" r="45.5" transform="translate(970 731)" fill="#329d9c"/><circle cx="35" cy="35" r="35" transform="translate(981 742)" fill="#7be495"/><rect width="18" height="20" transform="translate(1038.133 803.203) rotate(-65)" fill="#7be495"/><g transform="translate(978 738.464)"><rect width="77" height="77" transform="translate(0 -0.464)" fill="none"/><path d="M33.458,48.551v6.364H8V48.551ZM17.547,16.7v25.49h6.364V16.7h9.547L20.729,4,8,16.7Z" transform="translate(17.458 8.892)" fill="#fff"/></g></g></svg>