<svg xmlns="http://www.w3.org/2000/svg" xmlns:xlink="http://www.w3.org/1999/xlink" width="569" height="399" viewBox="0 0 569 399"><defs><clipPath id="a"><rect width="569" height="399" transform="translate(65 560)" fill="#fff" stroke="#707070" stroke-width="1"/></clipPath><filter id="b" x="172" y="136" width="250" height="176" filterUnits="userSpaceOnUse"><feOffset dy="1" input="SourceAlpha"/><feGaussianBlur stdDeviation="3" result="c"/><feFlood flood-opacity="0.69"/><feComposite operator="in" in2="c"/><feComposite in="SourceGraphic"/></filter></defs><g transform="translate(-65 -560)" clip-path="url(#a)"><path d="M364.07,66.077c59.495,46.974,124.017,95.08,119.827,142.62-4.19,46.974-77.092,93.948-163.4,121.679S134.471,367.729,74.138,340.563c-60.333-26.6-81.282-89.42-93.013-147.147S-32.282,83.621,5.426,40.043C42.3-3.535,117.712-38.058,183.91-32.4,249.27-26.739,303.737,19.1,364.07,66.077Z" transform="translate(613.802 864.044) rotate(162)" fill="#cff4d2"/><g transform="translate(84 770.805)"><g transform="translate(6.94)"><path d="M3039.243,496.541c-2.52-1.48-16.726-2.072-25.309-14.8-.591-1.184-7.4-13.91-16.278-23.085s-21.013-17.166-29.3-16.278-4.144,16.278-4.144,16.278a51.458,51.458,0,0,1,4.144,21.6c-.3,12.43,15.39,19.533,15.39,19.533s7.991,5.031,13.91,22.789,41.587,33.221,41.587,33.221Z" transform="translate(-2963.177 -442.313)" fill="#7be495"/><path d="M3027.923,562.734s-10.881,1.48-22.423-7.991a70.487,70.487,0,0,1-17.462-22.493s-12.43-26.636-24.86-30.484" transform="translate(-2951.856 -480.612)" fill="none" stroke="#707070" stroke-width="0.5"/></g><g transform="translate(0 71.387)"><path d="M0,24.6C14.988,30.9,31.25,39.742,56.954,42.59s37.872-1.615,45.864-7.194C118.7,24.3,113.909,5.42,100.719,1.223s-16.487,3.3-41.667,8.993S0,8.418,0,8.418Z" transform="matrix(-0.998, -0.07, 0.07, -0.998, 112.548, 51.239)" fill="#329d9c"/><path d="M0,0S64.748,21.283,95.324,0" transform="matrix(-0.998, -0.07, 0.07, -0.998, 113.742, 34.17)" fill="none" stroke="#707070" stroke-width="1"/></g></g><g transform="translate(527.387 823.411)"><path d="M3246.4,483.853c9.034-8.283,27.209-23.247,73.99-36.01s39.144,38.745,0,42.848-73.99,16.866-73.99,16.866Z" transform="translate(-3246.401 -445.815)" fill="#329d9c"/><path d="M3031.221,464.4s37.344-24.159,78.824-25.982" transform="translate(-3031.221 -415.04)" fill="none" stroke="#707070" stroke-width="0.5"/></g><g transform="translate(555.904 779.805)"><path d="M3173.524,684.222c14.464-33.236,5.539-23.7,8.617-53.854,2.783-22.687,31.743-23.567,37.237-17.233,3.312,3.563,4.472,11.81,2.235,15.54-6.751,11.383-5.8,4.849-13.006,18.619-9.232,25.542-23.7,36.929-23.7,36.929Z" transform="translate(-3173.524 -609.745)" fill="#7be495"/><path d="M3203.931,697.919c4.462-9.5,12.073-17.28,13.493-26.275,2.367-20.595,14.914-35.508,14.914-35.508" transform="translate(-3198.683 -623.442)" fill="none" stroke="#707070" stroke-width="1"/></g><g transform="translate(133 626)"><path d="M8,0H426a8,8,0,0,1,8,8V47a0,0,0,0,1,0,0H0a0,0,0,0,1,0,0V8A8,8,0,0,1,8,0Z" transform="translate(0 35)" fill="#56c596"/><rect width="302" height="28" rx="14" transform="translate(112 45)" fill="#202020"/><path d="M8,0H192a8,8,0,0,1,8,8V36a0,0,0,0,1,0,0H0a0,0,0,0,1,0,0V8A8,8,0,0,1,8,0Z" transform="translate(26)" fill="#56c596"/><ellipse cx="13" cy="13.5" rx="13" ry="13.5" transform="translate(38 4)" fill="#fff"/><g transform="translate(40.727 7.309)"><path d="M12.176,206.938,2,203.3l2.04-.729,0-.012,8.127,2.916.029.011,8.2-2.93.005.016,1.992.729-10.2,3.643Z" transform="translate(-2 -192.812)" fill="#d0e6ce"/><path d="M211.4,86.233l.073-5.367L221.63,77.24v5.374l-2,.713-8.2,2.93-.029-.011Z" transform="translate(-201.229 -73.579)" fill="#89c58d"/><path d="M3,76.624v-.049l.043-.016L13.2,80.219l-.073,5.367,0,.014L5,82.684l-2-.716Z" transform="translate(-2.951 -72.932)" fill="#60ba93"/><path d="M221.63,223.369l-10.2,3.643L211.4,227l0-.014v-5.473l.024.009,10.2-3.643Z" transform="translate(-201.229 -207.388)" fill="#89c58d"/><path d="M12.176,221.514v5.473l0,.014L2,223.369V217.88Z" transform="translate(-2 -207.388)" fill="#60ba93"/><path d="M312.2,234.814v.017l-10.152,3.626L291.89,234.8l10.133-3.619Zm-10.2,1.8,5.392-1.846-5.392-1.8-5.537,1.894Z" transform="translate(-291.798 -231.171)" fill="#89c58d"/><path d="M103.537,38.88v3.643L98,40.774Z" transform="translate(-93.337 -37.083)" fill="#d0e6ce"/><line x1="0.073" y2="5.367" transform="translate(10.176 7.286)" fill="none"/><path d="M422,75.88v5.44" transform="translate(-401.599 -72.286)" fill="rgba(0,0,0,0)"/><line y2="5.257" transform="translate(0 3.852)" fill="none"/><path d="M223.2,76.88l-.049.017L213,80.523" transform="translate(-202.751 -73.237)" fill="rgba(0,0,0,0)"/><path d="M2,75.88l.092.033,10.157,3.659" transform="translate(-2 -72.286)" fill="rgba(0,0,0,0)"/><line y1="3.824" x2="10.515" transform="translate(10.037 15.8)" fill="none"/><path d="M2,330.88l10.171,3.633.029.01" transform="translate(-2 -314.899)" fill="rgba(0,0,0,0)"/><path d="M212,1.88l.024.009L222.2,5.523" transform="translate(-201.799 -1.88)" fill="rgba(0,0,0,0)"/><path d="M3,5.523l.043-.016L13.176,1.889,13.2,1.88" transform="translate(-2.951 -1.88)" fill="rgba(0,0,0,0)"/><path d="M212,191.523l8.2-2.93,2-.713" transform="translate(-201.799 -178.845)" fill="rgba(0,0,0,0)"/><line y1="3.346" x2="10.515" transform="translate(10.037 10.543)" fill="none"/><line x2="0.053" y2="0.12" transform="translate(20.401 10.492)" fill="none"/><line x2="0.053" y2="0.129" transform="translate(20.401 15.981)" fill="none"/><line y2="5.257" transform="translate(20.552 10.543)" fill="none"/><line x2="0.022" y2="0.003" transform="translate(10.201 12.678)" fill="none"/><path d="M211.5,292.38v5.489" transform="translate(-201.324 -278.269)" fill="rgba(0,0,0,0)"/><path d="M13.152,191.523l-.029-.011L5,188.6l-2-.716" transform="translate(-2.951 -178.845)" fill="rgba(0,0,0,0)"/><path d="M12.2,221.523l-.024-.009L2,217.88" transform="translate(-2 -207.388)" fill="rgba(0,0,0,0)"/><line y2="5.257" transform="translate(0 10.543)" fill="none"/><line y1="0.956" x2="1.912" transform="translate(0 9.587)" fill="none"/><line x2="2.39" y2="0.956" transform="translate(18.162 9.587)" fill="none"/><line y2="3.346" transform="translate(10.037 1.94)" fill="none"/><line x1="5.735" y2="1.912" transform="translate(10.037 3.374)" fill="none"/><line x2="5.735" y2="1.434" transform="translate(10.037 1.94)" fill="none"/><line x1="5.257" y1="1.434" transform="translate(4.78 3.852)" fill="none"/><line y1="1.912" x2="5.257" transform="translate(4.78 1.94)" fill="none"/></g><rect width="31" height="25" rx="12.5" transform="translate(231 6)" fill="#7be495"/><rect width="32" height="24" rx="12" transform="translate(114 47)" fill="#7be495"/><path d="M42.575,8.074h-.9V5.468a5.468,5.468,0,1,0-10.936,0V8.074h-.9a.945.945,0,0,0-.945.945v8.3a.945.945,0,0,0,.945.945H42.575a.945.945,0,0,0,.945-.945V9.02a.945.945,0,0,0-.945-.945ZM33.038,5.468a3.172,3.172,0,0,1,6.344,0V8.074H33.038Zm4.2,8.016v1.7a1.031,1.031,0,1,1-2.062,0v-1.7a1.66,1.66,0,1,1,2.062,0Z" transform="translate(93.79 50.005)" fill="#fff"/><g transform="translate(44.124 46.861)"><path d="M0,0H24.55V24.55H0Z" fill="none"/><path d="M12.183,4,10.741,5.442l5.708,5.718H4v2.046H16.449l-5.708,5.718,1.442,1.442,8.183-8.183Z" transform="translate(0.092 0.092)" fill="#fff"/></g><g transform="translate(13.152 46.861)"><path d="M0,0H24.55V24.55H0Z" fill="none"/><path d="M20.367,11.16H7.918l5.718-5.718L12.183,4,4,12.183l8.183,8.183,1.442-1.442L7.918,13.206H20.367Z" transform="translate(0.092 0.092)" fill="#fff"/></g><g transform="translate(75.645 46.861)"><path d="M0,0H24.55V24.55H0Z" fill="none"/><path d="M17.963,6.4a8.185,8.185,0,1,0,2.128,7.825H17.963a6.135,6.135,0,1,1-5.78-8.183A6.05,6.05,0,0,1,16.5,7.867L13.206,11.16h7.16V4Z" transform="translate(0.092 0.092)" fill="#fff"/></g><g transform="translate(236.734 8.94)"><path d="M0,0H19.728V19.728H0Z" fill="none"/><path d="M16.508,11.576H11.576v4.932H9.932V11.576H5V9.932H9.932V5h1.644V9.932h4.932Z" transform="translate(-0.89 -0.89)" fill="#fff"/></g><g transform="translate(197.278 8.94)"><path d="M0,0H19.728V19.728H0Z" fill="none"/><path d="M16.508,6.159,15.349,5,10.754,9.595,6.159,5,5,6.159l4.595,4.595L5,15.349l1.159,1.159,4.595-4.595,4.595,4.595,1.159-1.159-4.595-4.595Z" transform="translate(-0.89 -0.89)" fill="#fff"/></g><rect width="105" height="16" rx="8" transform="translate(79 11)" fill="#fff"/><rect width="258" height="21" rx="10.5" transform="translate(150 48)" fill="#fff"/></g><path d="M0,0H434V177a8,8,0,0,1-8,8H8a8,8,0,0,1-8-8Z" transform="translate(133 708)" fill="#ebecf0"/><rect width="411" height="109" rx="8" transform="translate(144 772)" fill="#fff"/><rect width="434" height="52" transform="translate(133 708)" fill="#456250"/><rect width="117" height="15" rx="7.5" transform="translate(154 793)" fill="#329d9c"/><rect width="386" height="16" rx="8" transform="translate(154 844)" fill="#ebecf0"/><rect width="352" height="16" rx="8" transform="translate(154 818)" fill="#ebecf0"/><g transform="matrix(1, 0, 0, 1, 65, 560)" filter="url(#b)"><rect width="232" height="158" rx="8" transform="translate(181 144)" fill="#56c596"/></g><rect width="101" height="15" rx="7.5" transform="translate(262 718)" fill="#329d9c"/><g transform="translate(443.713 716.317)"><path d="M0,0H19.728V19.728H0Z" transform="translate(0)" fill="none"/><path d="M16.508,6.159,15.349,5,10.754,9.595,6.159,5,5,6.159l4.595,4.595L5,15.349l1.159,1.159,4.595-4.595,4.595,4.595,1.159-1.159-4.595-4.595Z" transform="translate(-0.89 -0.89)" fill="#fff"/></g><rect width="202" height="16" rx="8" transform="translate(262 743)" fill="#fff"/><g transform="translate(323.569 771.805)"><path d="M0,0H77.535V77.535H0Z" transform="translate(0)" fill="none"/><path d="M32.075,1,3,13.922V33.306C3,51.236,15.406,68,32.075,72.073,48.745,68,61.151,51.236,61.151,33.306V13.922ZM54.69,33.306c0,14.6-9.627,28.074-22.614,32.08C19.088,61.38,9.461,47.908,9.461,33.306V18.122L32.075,8.075,54.69,18.122ZM17.247,35.212l-4.555,4.555L25.614,52.69,51.459,26.845,46.9,22.257l-21.29,21.29Z" transform="translate(6.692 2.231)" fill="#fff"/></g><path d="M8.685,3A.685.685,0,0,0,8,3.685V15.327a.684.684,0,0,0,1.231.412l2.139-2.385,2.372,5.477a.985.985,0,1,0,1.8-.8l-2.448-5.421,3.808-.027a.685.685,0,0,0,.431-1.217L9.221,3.259A.685.685,0,0,0,8.685,3Z" transform="translate(264.405 690.961) rotate(-16)" fill="#fff"/></g></svg>